<svg xmlns="http://www.w3.org/2000/svg"  viewBox="0 0 64 64" width="64px" height="64px"><linearGradient id="02~pMELLidCkwyqezf7lva" x1="33.999" x2="33.999" y1="7.469" y2="56.857" gradientUnits="userSpaceOnUse" spreadMethod="reflect"><stop offset="0" stop-color="#1a6dff"/><stop offset="1" stop-color="#c822ff"/></linearGradient><path fill="url(#02~pMELLidCkwyqezf7lva)" d="M56.88,31.14c-0.22-0.83-0.77-1.53-1.53-1.97L16.54,7.48C15.98,7.16,15.36,7.01,14.67,7 c-0.99,0.01-1.92,0.41-2.61,1.12c-0.7,0.71-1.07,1.64-1.06,2.62v42.54c0,0.64,0.16,1.28,0.48,1.84c0.69,1.2,1.95,1.88,3.24,1.88 c0.62,0,1.25-0.15,1.82-0.48l38.81-21.69c0-0.01,0-0.01,0-0.01c0.51-0.29,0.93-0.71,1.22-1.21C57,32.86,57.11,31.98,56.88,31.14z M15.56,54.78c-0.82,0.46-1.87,0.17-2.34-0.65C13.08,53.87,13,53.58,13,53.28v-7.31c0.11,0.01,0.22,0.02,0.33,0.02 c0.64,0,1.28-0.16,1.84-0.48L18,43.87v9.51c0,0.01,0.01,0.02,0.01,0.03L15.56,54.78z M18.47,22.9C18.16,23.46,18,24.09,18,24.73 v16.82l-3.82,2.22c-0.36,0.21-0.78,0.26-1.18,0.18V10.73c-0.01-0.46,0.17-0.89,0.49-1.21c0.32-0.33,0.75-0.51,1.2-0.52 c0.01,0,0.02,0,0.02,0c0.3,0,0.59,0.08,0.85,0.22l29.87,16.7l-2.61,1.45l-7.01-4.11c-0.3-0.17-0.63-0.28-0.98-0.26 c-1.02,0.01-1.84,0.88-1.83,1.91v2.03l-9.52-5.45c-0.85-0.49-1.84-0.62-2.78-0.36C19.75,21.4,18.96,22.02,18.47,22.9z M46.77,32 L35,38.89V25.11L46.77,32z M33,29.24v3.6l-13,7.55V24.73c0-0.3,0.08-0.6,0.22-0.86c0.22-0.4,0.58-0.69,1.02-0.81 c0.42-0.12,0.86-0.06,1.24,0.16L33,29.24z M20,52.3v-9.6l13-7.54v3.92c0,0.33,0.08,0.66,0.24,0.95c0.25,0.45,0.66,0.78,1.15,0.91 c0.15,0.04,0.32,0.06,0.48,0.06c0.32,0,0.64-0.09,0.93-0.26l8.54-5h0.01l2.63,1.47L20,52.3z M54.83,32.62 c-0.11,0.19-0.27,0.35-0.46,0.46l-5.39,3.01c-0.06-0.05-0.11-0.11-0.18-0.15l-2.46-1.37l1.81-1.06c0.27-0.16,0.49-0.39,0.63-0.66 c0.45-0.82,0.17-1.88-0.63-2.36l-3.33-1.95l2.64-1.46c0.01,0,0.01-0.01,0.02-0.01l6.89,3.85c0.29,0.16,0.5,0.43,0.59,0.75 C55.04,31.99,55,32.33,54.83,32.62z"/><linearGradient id="02~pMELLidCkwyqezf7lvb" x1="26.5" x2="26.5" y1="22.999" y2="40.39" gradientUnits="userSpaceOnUse" spreadMethod="reflect"><stop offset="0" stop-color="#6dc7ff"/><stop offset="1" stop-color="#e6abff"/></linearGradient><path fill="url(#02~pMELLidCkwyqezf7lvb)" d="M33,29.24v3.6l-13,7.55V24.73c0-0.3,0.08-0.6,0.22-0.86c0.22-0.4,0.58-0.69,1.02-0.81 c0.42-0.12,0.86-0.06,1.24,0.16L33,29.24z"/><linearGradient id="02~pMELLidCkwyqezf7lvc" x1="33.49" x2="33.49" y1="35.16" y2="52.3" gradientUnits="userSpaceOnUse" spreadMethod="reflect"><stop offset="0" stop-color="#6dc7ff"/><stop offset="1" stop-color="#e6abff"/></linearGradient><path fill="url(#02~pMELLidCkwyqezf7lvc)" d="M46.98,37.21L20,52.3v-9.6l13-7.54v3.92c0,0.33,0.08,0.66,0.24,0.95 c0.25,0.45,0.66,0.78,1.15,0.91c0.15,0.04,0.32,0.06,0.48,0.06c0.32,0,0.64-0.09,0.93-0.26l8.54-5h0.01L46.98,37.21z"/></svg>